<?xml version="1.0" encoding="utf-8"?>
<!-- Generator: Adobe Illustrator 18.1.1, SVG Export Plug-In . SVG Version: 6.00 Build 0)  -->
<!DOCTYPE svg PUBLIC "-//W3C//DTD SVG 1.1//EN" "http://www.w3.org/Graphics/SVG/1.1/DTD/svg11.dtd">
<svg version="1.1" id="Layer_1" xmlns="http://www.w3.org/2000/svg" xmlns:xlink="http://www.w3.org/1999/xlink" x="0px" y="0px"
	 width="256px" height="256px" viewBox="0 0 256 256" style="enable-background:new 0 0 256 256;" xml:space="preserve">
<style type="text/css">
	.st0{fill:#3B3A33;}
</style>
<g>
	<path class="st0" d="M39.1,104.7l0.3-0.3c0.4-1.6,1.1-6.8-4-11.7c-5.1-4.9-11.1-5.1-12.9-5l-0.1,0.1c0,1.8,0.3,7.7,5.2,12.8
		C32.5,105.6,37.5,105,39.1,104.7z"/>
	<path class="st0" d="M141.5,166.1c3.5-3.7,3.7-7.9,3.7-9.2l-0.1,0c-1.3-0.1-5.7,0.1-9.3,3.6c-0.7,0.6-1.2,1.3-1.6,1.9v-13.8
		c3.1,2.7,7.2,4.4,11.7,4.4h47.6c6.3,0,11.8-3.3,15-8.2h10.4c9.8,0,17.8-8,17.8-17.8v-16.5c1.7,0.1,4.5-0.3,7.2-3.2
		c3.6-3.7,3.8-8,3.7-9.3l0,0c-1.3-0.1-5.7,0.1-9.4,3.6c-0.6,0.6-1.1,1.2-1.5,1.8v-1c0-1.7-1.4-3.1-3.1-3.1c-1.7,0-3.1,1.4-3.1,3.1
		v12.7c-0.1-0.1-0.2-0.2-0.2-0.3c-3.7-3.6-8.1-3.7-9.4-3.6l0,0.1c0,1.3,0.2,5.6,3.8,9.3c2.1,2.2,4.3,2.9,5.9,3.1v3.3
		c0,6.4-5.2,11.7-11.6,11.7H211c0.2-0.9,0.3-1.8,0.3-2.8c0.2-1.3,0.3-4.4-2.7-7.3c-3.3-3.2-7.3-3.3-8.5-3.3l0,0c0,1.2,0.2,5,3.4,8.3
		c0.6,0.6,1.1,1.1,1.7,1.4c0,0,0,0,0,0c0,6.4-5.2,11.7-11.7,11.7h-11.2c2.7-3.1,4.4-7.2,4.4-11.7v-23.4c2.1,0.2,6.4,0,10.6-4.3
		c4.9-5.1,5.2-11,5.2-12.8l-0.1-0.1c-1.8-0.1-7.8,0.1-12.9,5c-1.2,1.2-2.1,2.4-2.7,3.5V85.4c0-0.2,0-0.3,0-0.4c0,0,0-0.2,0-0.4
		c1.2,0.2,4.3,0.4,7.4-2.8c3.2-3.3,3.4-7.2,3.4-8.3l0,0c-1.2,0-5.1,0.1-8.4,3.3c-1,1-1.7,2-2.1,2.9c0.4-2.3,1.2-5,3-7.1
		c2.4-2.7,6.1-4.1,11.1-4.1c1.7,0,3.1-1.4,3.1-3.1s-1.4-3.1-3.1-3.1c-6.9,0-12.2,2.1-15.8,6.3c-5.5,6.4-4.8,15.4-4.6,17.1v8.3
		c-0.6-1.5-1.7-3-3.2-4.5c-5.1-4.9-11.1-5.1-12.9-5l-0.1,0.1c0,1.8,0.3,7.7,5.2,12.8c4.5,4.7,9.2,4.6,11.1,4.3v16.9
		c-0.8-1.2-1.7-2.4-3-3.6c-6.3-6.1-13.8-6.3-16.1-6.2l-0.1,0.1c0,2.2,0.3,9.6,6.4,15.9c4.9,5.1,9.9,5.6,12.7,5.4v5.2
		c0,6.4-5.2,11.7-11.6,11.7h-23c-6.2,0-11.3-4.9-11.6-11l0.1,0.1c1.1,0.2,4.8,0.6,8.3-3c3.5-3.7,3.7-7.9,3.7-9.2l-0.1,0
		c-1.3-0.1-5.7,0.1-9.3,3.6c-1.7,1.6-2.5,3.3-2.8,4.7v-10.5c0.3,0.1,0.7,0.2,1.1,0.2c9.8,0,17.8-8,17.8-17.8V88.2
		c1.6,0.2,4.6-0.1,7.6-3.1c3.5-3.7,3.7-7.9,3.7-9.2l0,0c-1.3-0.1-5.7,0.1-9.3,3.6c-0.8,0.8-1.5,1.6-1.9,2.4V54.8
		c1.6,0.3,6.6,0.8,11.5-4.2c4.9-5.1,5.2-11,5.2-12.8l-0.1-0.1c-1.8-0.1-7.9,0.1-12.9,5c-1.9,1.9-3,3.8-3.6,5.5V31.4
		c0-1.7-1.4-3.1-3.1-3.1c-1.2,0-2.2,0.7-2.7,1.7c-0.6-2.6-1.9-5.6-5-8.5c-6.3-6.1-13.8-6.3-16.1-6.2l-0.1,0.1
		c0,2.2,0.3,9.6,6.4,15.9c6.1,6.3,12.4,5.6,14.3,5.2l0,0v22.7c-0.6-1.5-1.7-3-3.3-4.5c-5.1-4.9-11.1-5.1-12.9-5l-0.1,0.1
		c0,1.8,0.3,7.7,5.2,12.8c4.5,4.7,9.2,4.6,11.1,4.3v37.2c0,6.4-5.2,11.7-11.7,11.7c-0.4,0-0.8,0.1-1.1,0.2v-5.2c0,0,0,0,0-0.1v-9.1
		l0,0c1,0.2,4.3,0.6,7.5-2.7c3.2-3.3,3.4-7.1,3.4-8.3l0,0c-1.2,0-5.1,0.1-8.4,3.2c-1.3,1.3-2.1,2.6-2.4,3.8V78.8
		c0-9.8-8-17.8-17.8-17.8h-3.3c-0.1-1.7-0.7-4-3-6.3c-3.6-3.5-7.9-3.6-9.2-3.5l0,0c0,1.3,0.2,5.5,3.7,9.1c0.3,0.3,0.5,0.5,0.8,0.7
		H95.1c-0.5-2.6-1.9-5.8-5.1-8.9C83.7,46,76.2,45.8,74,45.9L73.9,46c0,2.2,0.3,9.6,6.4,15.9c5.7,5.9,11.6,5.7,13.9,5.3h22.2
		c6.4,0,11.7,5.2,11.7,11.7v8.8c-0.7-2.2-2.1-4.5-4.5-6.8c-6.3-6.1-13.8-6.3-16.1-6.2l-0.1,0.1c0,2.2,0.3,9.6,6.4,15.9
		c6,6.2,12.2,5.6,14.3,5.2v29.5c0,0,0,0,0,0v9.7c-0.7-1.4-1.6-2.9-3.1-4.3c-5.1-4.9-11.1-5.1-12.9-5l-0.1,0.1
		c0,1.8,0.3,7.7,5.2,12.8c4.4,4.6,9,4.6,11,4.3v7c0,6.4-5.2,11.7-11.7,11.7h-10.8c2.7-3.1,4.4-7.2,4.4-11.7v-38.3
		c1.4,0.2,4.6,0.1,7.6-3c3.4-3.5,3.6-7.7,3.6-9l0,0c-1.3-0.1-5.5,0.1-9.1,3.5c-1,1-1.7,1.9-2.1,2.9v-5.8c0-9.5-7.5-17.3-16.8-17.8
		c-0.5-1-1.2-2.1-2.2-3.1c-3.6-3.5-7.9-3.6-9.2-3.5l0,0c0,1.3,0.2,5.5,3.7,9.1c1.7,1.7,3.4,2.5,4.8,2.9c0.5,0.5,1.2,0.8,2,0.8
		c6.4,0,11.7,5.2,11.7,11.7v17c-0.6-1.3-1.6-2.7-3-4.1c-5.1-4.9-11.1-5.1-12.9-5l-0.1,0.1c0,1.8,0.3,7.7,5.2,12.8
		c4.4,4.5,8.8,4.6,10.9,4.3v17.5c-0.7-1.9-1.9-4.1-4.1-6.1c-5.8-5.6-12.6-5.7-14.6-5.7l-0.1,0.1c0,2,0.3,8.7,5.8,14.5
		c5.4,5.6,11,5.1,12.9,4.8c-0.2,6.3-5.3,11.3-11.6,11.3H82.1H68.3v-4.9c1.6,0.2,5.4,0.3,9.2-3.5c4.1-4.2,4.3-9.1,4.3-10.6l-0.1-0.1
		c-1.5-0.1-6.5,0.1-10.7,4.1c-1.3,1.3-2.1,2.5-2.7,3.7v-25.3c1.4,0.2,4.6,0.1,7.6-3c3.4-3.5,3.6-7.7,3.6-9l0,0
		c-1.3-0.1-5.5,0.1-9.1,3.5c-1,0.9-1.6,1.9-2.1,2.8c0.3-6.2,5.4-11.1,11.6-11.1c1.7,0,3.1-1.4,3.1-3.1c0-1.7-1.4-3.1-3.1-3.1
		c-9.8,0-17.8,8-17.8,17.8v9.8c-0.4-1-1.1-2.1-2.2-3.2c-3.4-3.3-7.4-3.4-8.6-3.3l0,0c0,1.2,0.2,5.1,3.4,8.5c3,3.2,6.2,3,7.4,2.8
		v26.9h-4.7c-5.6,0-10.2-3.9-11.4-9.1l0.1,0.1c1.3,0.3,5.5,0.7,9.6-3.5c4.1-4.2,4.3-9.1,4.3-10.6l-0.1-0.1
		c-1.5-0.1-6.5,0.1-10.7,4.2c-2.3,2.2-3.2,4.5-3.4,6.4v-37.7c0,0.2,0.1,0.4,0.1,0.5l0.3,0.3c1.6,0.3,6.6,0.9,11.5-4.2
		c4.9-5.1,5.2-11,5.2-12.8L62.9,95c-1.8-0.1-7.8,0.1-12.9,5c-2.7,2.6-3.8,5.3-4.1,7.5V84.7c0-1.7-1.4-3.1-3.1-3.1
		c-1.7,0-3.1,1.4-3.1,3.1v39c-0.8-1.8-2.1-3.8-4.1-5.7c-6.3-6.1-13.8-6.3-16.1-6.2l-0.1,0.1c0,2.2,0.3,9.6,6.4,15.9
		c5.6,5.8,11.4,5.7,13.8,5.3v16.8c0,4.5,1.7,8.5,4.4,11.7H29.6c-5.3,0-9.8-3.6-11.2-8.4c2.1,0.3,6.5,0.1,10.7-4.3
		c4.9-5.1,5.2-11,5.2-12.8l-0.1-0.1c-1.8-0.1-7.9,0.1-12.9,5c-2.5,2.4-3.6,4.9-4,7.1c-0.6-0.7-1.4-1.2-2.4-1.2c-0.5,0-1,0.1-1.4,0.3
		c-0.3-1.4-1-3-2.7-4.6c-3.4-3.3-7.4-3.4-8.6-3.3l0,0c0,1.2,0.2,5.1,3.4,8.5c2.3,2.4,4.6,2.9,6.2,2.9c0.4,9.4,8.2,17,17.8,17h27.9
		h4.7v2c0,0.6,0,1.2,0.1,1.8c-2.9-1.9-5.8-1.9-6.8-1.9l0,0c0,1.2,0.2,5.1,3.4,8.5c3,3.1,6,3,7.3,2.8c2.8,3.5,7,5.9,11.7,6.5
		c-1.6,0.4-3.5,1.2-5.4,3.2c-3.8,3.9-4,8.6-4,10l0.1,0.1c1.4,0.1,6.1-0.1,10.1-3.9c4-3.9,3.4-7.9,3.1-9.1l0,0h19.2
		c-0.9,0.4-1.9,1.1-2.9,2.1c-3.2,3.3-3.4,7.2-3.4,8.4l0,0c1.2,0.1,5.2-0.1,8.5-3.3c2.9-2.8,2.9-5.8,2.7-7.2
		c5.9,0.6,10.5,5.6,10.5,11.6v18.4c0,6.4-5.2,11.7-11.7,11.7c-1.7,0-3.1,1.4-3.1,3.1s1.4,3.1,3.1,3.1c9.8,0,17.8-8,17.8-17.8v-18.4
		c0-2.7-0.6-5.3-1.7-7.6c7.8-1.9,13.6-8.9,13.6-17.3v-5C135.9,169.3,138.7,168.9,141.5,166.1z M116.5,185.9
		c-3.2-2.9-7.3-4.6-11.9-4.6h-0.1c0,0,0,0,0,0H86.3c0.8-0.4,1.7-1.1,2.6-2c3.2-3.3,3.4-7.1,3.3-8.3l0,0c-1.2-0.1-5.1,0.1-8.4,3.2
		c-2.9,2.8-2.9,5.7-2.7,7.1H80c-6.4,0-11.7-5.2-11.7-11.6v-2h13.8h10.2h24.2c4.5,0,8.5-1.6,11.7-4.4v11
		C128.1,180.6,122.9,185.9,116.5,185.9z"/>
	<path class="st0" d="M153.4,31.4c1,0.2,4.3,0.6,7.5-2.7c3.2-3.3,3.4-7.1,3.4-8.3l0,0c-1.2,0-5.1,0.1-8.4,3.2
		c-3.3,3.2-2.8,6.6-2.6,7.6L153.4,31.4z"/>
	<path class="st0" d="M252.6,134.8L252.6,134.8c-1.4-0.1-5.7,0-9.4,3.6c-0.5,0.5-1,1.1-1.4,1.6c-0.4-1.1-1.6-1.9-2.8-1.9
		c-1.7,0-3.1,1.4-3.1,3.1v17.8c-0.6-1.5-1.7-3.1-3.3-4.7c-5.1-4.9-11-5-12.8-5l-0.1,0.1c0,1.8,0.3,7.6,5.1,12.7
		c4.5,4.7,9.2,4.5,11.1,4.2c-0.3,6.2-5.4,11.1-11.6,11.1h-28.4c1-0.6,2.1-1.4,3.1-2.5c4.6-4.7,4.9-10.3,4.8-12l-0.1-0.1
		c-1.7-0.1-7.3,0.1-12.1,4.7c-3.9,3.8-4.2,7.7-3.9,9.8h-13.2c-6,0-11-4.6-11.6-10.4h19.9c0.9,0,1.7-0.4,2.2-1
		c1.4-0.1,3.4-0.7,5.3-2.7c3.1-3.2,3.2-6.8,3.2-8l0,0c-1.1,0-4.9,0.1-8.1,3.1c-0.9,0.9-1.5,1.7-1.9,2.6c-0.3-0.1-0.5-0.1-0.8-0.1
		h-24.5c-9.8,0-17.8,8-17.8,17.8v39c0,9.8,8,17.8,17.8,17.8c1.7,0,3.1-1.4,3.1-3.1s-1.4-3.1-3.1-3.1c-6.4,0-11.7-5.2-11.7-11.7
		v-19.9c1,0.1,3-0.1,5-2.1c2.3-2.4,2.5-5.2,2.5-6.1l0,0c-0.9,0-3.7,0-6.2,2.4c-0.5,0.5-0.9,1.1-1.2,1.6v-7.7
		c1.4,0.1,3.8-0.3,6.1-2.7c3-3.2,3.2-6.8,3.2-8l0,0c-1.1,0-4.9,0.1-8.1,3.1c-0.5,0.5-0.9,1-1.3,1.5v-1c0-5.9,4.4-10.8,10.2-11.5
		c0.7,9.2,8.4,16.5,17.7,16.5h26.7c-0.3,1.9-0.2,6.1,4,10.1c4.7,4.6,10.3,4.9,12,4.8l0.1-0.1c0.1-1.7-0.1-7.3-4.7-12.1
		c-1.3-1.3-2.5-2.2-3.8-2.8h15.4c9.8,0,17.8-8,17.8-17.8v-18.4c1.7,0,4.3-0.6,6.8-3.2C252.4,140.4,252.6,136.1,252.6,134.8z"/>
</g>
<g>
</g>
<g>
</g>
<g>
</g>
<g>
</g>
<g>
</g>
<g>
</g>
</svg>
